<svg width="219" height="244" viewBox="0 0 219 244" fill="none" xmlns="http://www.w3.org/2000/svg">
<path d="M143.9 0V74.87H218.76V64.54H154.22V0" fill="#46E394"/>
<path d="M74.87 243.27V168.4H0V178.73H64.54V243.27H74.87Z" fill="#46E394"/>
<path d="M216.66 190.75V188.08H214.66C214.115 188.123 213.569 188.005 213.09 187.74C212.764 187.525 212.534 187.192 212.45 186.81C212.34 186.277 212.293 185.734 212.31 185.19V173.73H216.72V171.06H212.31V163.59H209.31V171.06H206.14V173.73H209.31V185.8C209.31 187.67 209.69 188.97 210.45 189.68C211.445 190.471 212.703 190.854 213.97 190.75H216.66ZM204.46 190.75V188.08H203.46C202.923 188.117 202.385 188.013 201.9 187.78C201.741 187.687 201.603 187.562 201.493 187.415C201.383 187.267 201.304 187.099 201.26 186.92C201.148 186.401 201.101 185.87 201.12 185.34V163.59H198.12V185.8C198.12 187.67 198.5 188.97 199.26 189.68C200.255 190.471 201.513 190.854 202.78 190.75H204.46ZM183.92 191.1C184.974 191.108 186.01 190.832 186.92 190.3C188.007 189.611 188.957 188.726 189.72 187.69V190.75H192.72V171.06H189.72V179.44C189.757 181.04 189.62 182.64 189.31 184.21C189.109 185.23 188.636 186.177 187.94 186.95C187.48 187.438 186.921 187.821 186.299 188.073C185.678 188.325 185.01 188.44 184.34 188.41C183.79 188.453 183.238 188.377 182.72 188.187C182.203 187.997 181.732 187.698 181.34 187.31C180.58 186.463 180.2 184.993 180.2 182.9V171.06H177.2V182.92C177.105 184.666 177.423 186.41 178.13 188.01C179.24 190.07 181.13 191.1 183.93 191.1H183.92ZM165.03 191.1C167.024 191.221 168.999 190.649 170.62 189.48C171.272 188.954 171.792 188.284 172.14 187.522C172.487 186.76 172.651 185.927 172.62 185.09C172.69 183.919 172.307 182.766 171.55 181.87C170.85 181.105 169.97 180.528 168.99 180.19C167.72 179.772 166.424 179.438 165.11 179.19C164.163 179.021 163.225 178.804 162.3 178.54C161.687 178.362 161.116 178.063 160.62 177.66C160.397 177.468 160.22 177.228 160.104 176.958C159.988 176.687 159.935 176.394 159.95 176.1C159.939 175.701 160.034 175.307 160.223 174.956C160.413 174.605 160.691 174.31 161.03 174.1C161.953 173.561 163.014 173.307 164.08 173.37C165.27 173.325 166.447 173.634 167.46 174.26C168.386 174.89 169.026 175.861 169.24 176.96H172C171.743 175.15 170.802 173.507 169.37 172.37C167.832 171.313 166.018 170.733 164.152 170.701C162.287 170.669 160.453 171.187 158.88 172.19C158.23 172.667 157.707 173.297 157.358 174.025C157.009 174.752 156.845 175.554 156.88 176.36C156.814 177.436 157.174 178.495 157.88 179.31C158.537 180.02 159.363 180.553 160.28 180.86C161.498 181.255 162.741 181.569 164 181.8C165.013 181.982 166.015 182.222 167 182.52C167.687 182.701 168.322 183.044 168.85 183.52C169.095 183.756 169.286 184.041 169.412 184.356C169.538 184.672 169.595 185.011 169.58 185.35C169.595 185.798 169.49 186.243 169.276 186.637C169.061 187.03 168.745 187.36 168.36 187.59C167.356 188.157 166.212 188.427 165.06 188.37C163.647 188.455 162.245 188.084 161.06 187.31C160.089 186.581 159.434 185.507 159.23 184.31H156.06C156.188 185.276 156.506 186.207 156.995 187.05C157.484 187.892 158.135 188.63 158.91 189.22C160.687 190.472 162.829 191.098 165 191L165.03 191.1ZM139.23 190.65V182.25C139.188 180.65 139.325 179.05 139.64 177.48C139.851 176.495 140.32 175.584 141 174.84C141.458 174.352 142.016 173.969 142.635 173.717C143.255 173.465 143.922 173.35 144.59 173.38C145.139 173.341 145.691 173.419 146.208 173.609C146.725 173.798 147.196 174.095 147.59 174.48C148.35 175.33 148.73 176.81 148.73 178.89V190.75H151.73V178.89C151.736 177.994 151.683 177.099 151.57 176.21C151.459 175.368 151.202 174.553 150.81 173.8C149.72 171.74 147.81 170.71 145.01 170.71C143.961 170.697 142.926 170.959 142.01 171.47C140.901 172.158 139.939 173.059 139.18 174.12V171.06H136.18V190.75L139.23 190.65ZM121.91 188.44C120.716 188.444 119.548 188.096 118.55 187.44C117.525 186.764 116.706 185.819 116.18 184.71C115.599 183.49 115.308 182.151 115.33 180.8C115.31 179.481 115.601 178.176 116.18 176.99C116.708 175.898 117.528 174.973 118.55 174.32C119.549 173.668 120.717 173.32 121.91 173.32C123.118 173.307 124.302 173.655 125.31 174.32C126.33 174.98 127.15 175.907 127.68 177C128.257 178.176 128.548 179.471 128.53 180.78C128.551 182.127 128.253 183.46 127.66 184.67C127.124 185.776 126.303 186.719 125.28 187.4C124.282 188.062 123.108 188.411 121.91 188.4V188.44ZM121.91 191.07C123.668 191.098 125.399 190.638 126.91 189.74C128.375 188.859 129.566 187.589 130.35 186.07C131.189 184.438 131.612 182.625 131.58 180.79C131.607 178.979 131.177 177.191 130.33 175.59C129.54 174.088 128.344 172.838 126.88 171.98C125.363 171.099 123.634 170.649 121.88 170.68C120.125 170.643 118.394 171.093 116.88 171.98C115.424 172.838 114.238 174.089 113.46 175.59C112.624 177.194 112.201 178.981 112.23 180.79C112.201 182.631 112.623 184.45 113.46 186.09C114.234 187.609 115.419 188.881 116.88 189.76C118.394 190.65 120.124 191.104 121.88 191.07H121.91ZM100.03 191.07C102.078 191.128 104.088 190.502 105.74 189.29C107.325 188.091 108.397 186.337 108.74 184.38H105.5C105.19 185.555 104.483 186.586 103.5 187.3C102.484 188.045 101.25 188.432 99.99 188.4C98.7989 188.407 97.6327 188.058 96.64 187.4C95.6327 186.724 94.8274 185.787 94.31 184.69C93.7361 183.461 93.4522 182.116 93.48 180.76C93.4556 179.434 93.7469 178.121 94.33 176.93C94.8555 175.854 95.6602 174.939 96.66 174.28C97.647 173.625 98.8057 173.277 99.99 173.28C101.177 173.26 102.34 173.61 103.32 174.28C104.256 174.906 104.959 175.823 105.32 176.89H108.56C108.156 175.05 107.088 173.423 105.56 172.32C103.925 171.159 101.954 170.565 99.95 170.63C98.1948 170.589 96.4632 171.04 94.95 171.93C93.5056 172.791 92.3339 174.042 91.57 175.54C90.7458 177.148 90.3302 178.934 90.36 180.74C90.3289 182.579 90.7441 184.397 91.57 186.04C92.3283 187.557 93.5 188.83 94.95 189.71C96.4624 190.603 98.1939 191.057 99.95 191.02" fill="#46E394"/>
<path d="M11.4499 147.05C8.2299 147.05 5.79324 146.307 4.1399 144.82C2.4799 143.34 1.6499 140.98 1.6499 137.76V89.44H11.8199V134.78C11.7167 135.842 11.9969 136.906 12.6099 137.78C12.9716 138.103 13.3968 138.348 13.8582 138.497C14.3196 138.647 14.8073 138.699 15.2899 138.65H17.9999V147.11L11.4499 147.05Z" fill="#151817"/>
<path d="M26.74 144.6C24.18 142.4 22.9 139.337 22.9 135.41C22.8036 133.52 23.1966 131.636 24.0409 129.942C24.8853 128.248 26.1525 126.801 27.72 125.74C30.7257 123.865 34.0856 122.629 37.59 122.11L50.17 119.77C50.3094 117.586 49.592 115.434 48.17 113.77C47.4223 113.057 46.5325 112.511 45.5588 112.166C44.5851 111.821 43.5495 111.686 42.52 111.77C40.6512 111.74 38.8289 112.354 37.36 113.51C35.8782 114.661 34.894 116.336 34.61 118.19H24.48C24.7089 116.068 25.3764 114.016 26.4403 112.166C27.5041 110.315 28.9411 108.706 30.66 107.44C34.1257 104.959 38.2987 103.662 42.56 103.74C44.9902 103.721 47.4078 104.092 49.72 104.84C51.8089 105.499 53.7345 106.593 55.37 108.05C56.875 109.333 58.0395 110.968 58.76 112.81C59.4529 114.552 59.8972 116.384 60.08 118.25C60.26 120.06 60.35 122.31 60.35 124.98V147.04H50.17V145.84C50.1975 144.448 50.5393 143.081 51.17 141.84L50 141.23C49.1727 143.01 47.872 144.529 46.24 145.62C43.98 147.127 40.8134 147.88 36.74 147.88C33.1183 148.042 29.5621 146.876 26.74 144.6ZM44.67 138.66C46.2418 137.94 47.5769 136.789 48.52 135.34C48.928 134.632 49.2631 133.885 49.52 133.11C49.77 132.38 50.21 130.57 50.35 130.05C50.4879 129.601 50.6515 129.16 50.84 128.73L51.63 127.03C47.63 127.83 45.0434 128.357 43.87 128.61L40.25 129.29C38.11 129.549 36.0809 130.386 34.38 131.71C33.938 132.143 33.5892 132.662 33.3553 133.234C33.1214 133.807 33.0073 134.422 33.02 135.04C32.9832 135.731 33.1182 136.421 33.4131 137.048C33.7081 137.674 34.1536 138.218 34.71 138.63C36.0354 139.513 37.6092 139.948 39.2 139.87C41.0736 139.869 42.924 139.456 44.62 138.66" fill="#151817"/>
<path d="M69.0898 147.05V104.66H79.2598V106.02C79.2799 106.694 79.2025 107.368 79.0298 108.02C78.8455 108.584 78.5381 109.1 78.1298 109.53C78.1298 109.53 82.5098 106.25 84.3498 105.26C86.3409 104.242 88.5544 103.737 90.7898 103.79C97.3165 103.79 101.713 106.16 103.98 110.9C104.71 112.504 105.193 114.211 105.41 115.96C105.635 118.193 105.735 120.436 105.71 122.68V147.09H95.6098V122.49C95.6098 118.41 94.9065 115.59 93.4998 114.03C92.7873 113.362 91.944 112.849 91.0231 112.524C90.1022 112.199 89.1238 112.068 88.1498 112.14C86.9584 112.059 85.764 112.248 84.6558 112.693C83.5476 113.138 82.5543 113.827 81.7498 114.71C80.8135 115.876 80.1659 117.246 79.8598 118.71C79.4106 120.911 79.2094 123.155 79.2598 125.4V147.01L69.0898 147.05Z" fill="#151817"/>
<path d="M123.23 145.09C120.009 143.242 117.38 140.516 115.65 137.23C113.795 133.635 112.864 129.635 112.94 125.59C112.874 121.645 113.806 117.748 115.65 114.26C117.387 111.008 120.017 108.319 123.23 106.51C126.653 104.624 130.512 103.672 134.42 103.75C139.034 103.612 143.569 104.977 147.34 107.64C150.85 110.191 153.302 113.941 154.23 118.18H143.16C142.599 116.359 141.462 114.769 139.92 113.65C138.299 112.556 136.375 112 134.42 112.06C132.89 112.019 131.372 112.332 129.984 112.976C128.597 113.62 127.376 114.576 126.42 115.77C124.42 118.23 123.42 121.503 123.42 125.59C123.42 129.817 124.42 133.203 126.42 135.75C127.358 136.972 128.571 137.956 129.962 138.62C131.352 139.284 132.88 139.609 134.42 139.57C136.523 139.668 138.596 139.04 140.29 137.79C141.856 136.521 142.946 134.759 143.38 132.79H154.38C153.583 137.218 151.13 141.176 147.52 143.86C143.708 146.597 139.101 148.003 134.41 147.86C130.498 147.938 126.637 146.975 123.22 145.07" fill="#151817"/>
<path d="M162.15 98.44C161.579 97.9007 161.124 97.2504 160.813 96.5291C160.502 95.8077 160.342 95.0305 160.342 94.245C160.342 93.4595 160.502 92.6823 160.813 91.9609C161.124 91.2396 161.579 90.5893 162.15 90.05C163.357 88.9388 164.95 88.3431 166.59 88.39C168.219 88.3572 169.797 88.9515 171 90.05C171.577 90.5819 172.037 91.2274 172.352 91.946C172.666 92.6646 172.829 93.4405 172.829 94.225C172.829 95.0095 172.666 95.7854 172.352 96.504C172.037 97.2225 171.577 97.8681 171 98.4C169.776 99.4856 168.185 100.065 166.55 100.02C164.925 100.066 163.341 99.5027 162.11 98.44H162.15ZM171.6 147.1H161.47V104.66H171.64L171.6 147.1Z" fill="#151817"/>
<path d="M183.92 144.67C181.36 142.483 180.08 139.423 180.08 135.49C179.984 133.6 180.377 131.716 181.221 130.022C182.065 128.328 183.333 126.881 184.9 125.82C187.906 123.945 191.266 122.709 194.77 122.19L207.35 119.85C207.49 117.666 206.772 115.514 205.35 113.85C204.603 113.137 203.713 112.591 202.739 112.246C201.765 111.901 200.73 111.766 199.7 111.85C197.831 111.82 196.009 112.434 194.54 113.59C193.058 114.741 192.074 116.416 191.79 118.27H181.69C181.922 116.151 182.59 114.103 183.654 112.257C184.718 110.41 186.154 108.803 187.87 107.54C191.334 105.055 195.508 103.757 199.77 103.84C202.2 103.818 204.617 104.186 206.93 104.93C209.018 105.596 210.943 106.693 212.58 108.15C214.085 109.433 215.25 111.068 215.97 112.91C216.664 114.652 217.109 116.484 217.29 118.35C217.47 120.163 217.56 122.403 217.56 125.07V147.14H207.35V145.93C207.38 144.539 207.722 143.172 208.35 141.93L207.22 141.33C206.392 143.107 205.091 144.622 203.46 145.71C201.2 147.217 198.034 147.973 193.96 147.98C190.337 148.138 186.781 146.969 183.96 144.69L183.92 144.67ZM201.89 138.76C203.445 138.031 204.765 136.881 205.7 135.44C206.125 134.734 206.477 133.987 206.75 133.21C207 132.48 207.44 130.67 207.58 130.15C207.719 129.698 207.882 129.254 208.07 128.82L208.86 127.12C204.86 127.933 202.274 128.463 201.1 128.71L197.48 129.39C195.338 129.653 193.307 130.489 191.6 131.81C191.161 132.242 190.815 132.76 190.583 133.331C190.351 133.902 190.238 134.514 190.25 135.13C190.212 135.822 190.346 136.512 190.641 137.139C190.936 137.766 191.382 138.309 191.94 138.72C193.264 139.608 194.838 140.046 196.43 139.97C198.304 139.968 200.154 139.555 201.85 138.76" fill="#151817"/>
</svg>
